<svg width="29" height="18" viewBox="0 0 29 18" fill="none" xmlns="http://www.w3.org/2000/svg">
<path d="M26.3997 2.4H17.9998V0H26.3997V2.4ZM28.4709 14.4C27.9405 15.9564 26.0361 18 22.3498 18C18.661 18 15.673 15.9252 15.673 11.19C15.673 6.498 18.463 4.086 22.2322 4.086C25.9305 4.086 28.1889 6.2244 28.6821 9.3972C28.7757 10.0044 28.8129 10.8228 28.7961 11.9652H19.1638C19.3198 15.8184 23.3433 15.9396 24.6693 14.4H28.4709ZM19.2478 9.6H25.2057C25.0797 7.7436 23.8425 6.9372 22.2334 6.9372C20.4742 6.9372 19.501 7.8588 19.2478 9.6ZM7.75912 17.9856H0V0.0251999H8.34351C14.9146 0.1224 15.0394 6.558 11.6075 8.3124C15.7606 9.8244 15.8998 17.9856 7.75912 17.9856ZM3.59996 7.2H7.90071C10.9103 7.2 11.3879 3.6 7.52632 3.6H3.59996V7.2ZM7.66912 10.8H3.59996V14.4192H7.60912C11.2751 14.4192 11.0507 10.8 7.66912 10.8Z" fill="#8E86AC"/>
</svg>
