<svg width="24" height="24" viewBox="0 0 24 24" fill="none" xmlns="http://www.w3.org/2000/svg">
<path d="M12 1C5.92433 1 1 5.92525 1 12C1 18.0748 5.92433 23 12 23C18.0757 23 23 18.0748 23 12C23 5.92525 18.0757 1 12 1ZM21.0613 11.4876C18.7008 11.1007 16.5302 11.0797 14.5502 11.4207C14.3265 10.9046 14.0946 10.3894 13.8471 9.88067C15.9646 8.964 17.665 7.71917 18.9328 6.13883C20.1702 7.6 20.9467 9.45625 21.0613 11.4876ZM17.5394 4.81242C16.4348 6.23692 14.9104 7.3635 12.9689 8.18575C12.0376 6.47983 10.9724 4.81608 9.77158 3.20092C10.4857 3.02033 11.23 2.91308 12 2.91308C14.0854 2.91308 16.004 3.62717 17.5394 4.81242ZM7.89975 3.90217C9.11983 5.499 10.2015 7.14533 11.142 8.83475C8.9145 9.49017 6.25525 9.82658 3.18167 9.84767C3.816 7.24892 5.56592 5.08742 7.89975 3.90217ZM2.91308 12L2.925 11.7653C6.45325 11.7608 9.49658 11.3547 12.0458 10.5535C12.2594 10.9889 12.4638 11.4262 12.66 11.8662C9.56167 12.8351 7.00875 14.8197 5.01775 17.8062C3.70508 16.2304 2.91308 14.2064 2.91308 12ZM6.423 19.1592C8.22792 16.3285 10.5315 14.486 13.3878 13.6344C14.2385 15.8528 14.8628 18.1353 15.2606 20.4727C12.1907 21.6562 8.887 21.0833 6.423 19.1592ZM17.0435 19.5533C16.642 17.3964 16.0535 15.2881 15.2835 13.2311C17.0032 12.9882 18.8952 13.0514 20.9659 13.4107C20.5653 15.9646 19.1069 18.1701 17.0435 19.5533Z" fill="#8E86AC" stroke="#8E86AC"/>
</svg>
