<svg width="22" height="22" viewBox="0 0 22 22" fill="none" xmlns="http://www.w3.org/2000/svg">
<path fill-rule="evenodd" clip-rule="evenodd" d="M19.5772 17.4889C19.3763 17.9897 19.1341 18.364 18.7461 18.7492C18.3581 19.1372 17.9866 19.3794 17.4858 19.5803C16.241 20.0749 13.5246 20.0485 11.768 20.0314C11.4821 20.0286 11.2216 20.0261 10.997 20.0261C10.7718 20.0261 10.5104 20.0286 10.2234 20.0314C8.46614 20.0486 5.74976 20.0751 4.50553 19.583C4.0047 19.3822 3.63045 19.14 3.2452 18.752C2.8572 18.364 2.61504 17.9925 2.41415 17.4916C1.92215 16.245 1.94863 13.5304 1.96576 11.7736C1.96856 11.4867 1.97111 11.2253 1.97111 11C1.97111 10.7748 1.96856 10.5133 1.96576 10.2263C1.94863 8.46906 1.92214 5.75262 2.41415 4.50836C2.61504 4.00753 2.8572 3.63327 3.2452 3.24801C3.63321 2.86275 4.0047 2.61784 4.50553 2.41695C5.74976 1.92493 8.46615 1.95142 10.2234 1.96855C10.5104 1.97135 10.7718 1.9739 10.997 1.9739C11.2223 1.9739 11.4837 1.97135 11.7707 1.96855C13.5279 1.95142 16.2443 1.92493 17.4886 2.41695C17.9894 2.61784 18.3636 2.86 18.7489 3.24801C19.1369 3.63602 19.3791 4.00753 19.5799 4.50836C20.072 5.75262 20.0455 8.46905 20.0283 10.2263C20.0255 10.5133 20.023 10.7748 20.023 11C20.023 11.2246 20.0255 11.485 20.0283 11.7709C20.0454 13.5276 20.0718 16.244 19.5772 17.4889ZM5.35309 11C5.35309 7.87664 7.87374 5.35594 10.997 5.35594C14.1203 5.35594 16.641 7.87664 16.641 11C16.641 14.1234 14.1203 16.6441 10.997 16.6441C7.87374 16.6441 5.35309 14.1234 5.35309 11ZM15.554 5.12753C15.554 4.39829 16.1429 3.80939 16.8722 3.80939C17.0453 3.80917 17.2168 3.84312 17.3768 3.90929C17.5369 3.97545 17.6822 4.07254 17.8047 4.19498C17.9271 4.31743 18.0242 4.46282 18.0904 4.62285C18.1565 4.78287 18.1905 4.95437 18.1903 5.12753C18.1903 5.85953 17.6014 6.44567 16.8722 6.44567C16.1429 6.44567 15.554 5.85678 15.554 5.12753Z" fill="#8E86AC"/>
<path fill-rule="evenodd" clip-rule="evenodd" d="M21.9988 11C21.9988 10.8146 21.999 10.6294 21.9992 10.4443C22.0007 9.11334 22.0021 7.79063 21.9272 6.45943C21.8419 4.69824 21.4402 3.13519 20.1523 1.84732C18.8617 0.556694 17.3014 0.157674 15.5403 0.0723668C14.2066 -0.00253073 12.8836 -0.00106434 11.5544 0.000408868C11.3697 0.00061363 11.1848 0.000818525 10.9998 0.000818525C10.8144 0.000818525 10.6292 0.00061354 10.4442 0.000408732C9.11318 -0.00106443 7.79049 -0.00252843 6.45931 0.0723668C4.69816 0.157674 3.13513 0.559446 1.84728 1.84732C0.556684 3.13794 0.157672 4.69824 0.0723655 6.45943C-0.00253068 7.79309 -0.00106432 9.11615 0.00040886 10.4454C0.000613619 10.6301 0.000818509 10.815 0.000818509 11C0.000818509 11.185 0.000613676 11.3699 0.000408946 11.5547C-0.00106426 12.8844 -0.00253215 14.2093 0.0723655 15.5406C0.157672 17.3018 0.559436 18.8648 1.84728 20.1527C3.13788 21.4433 4.69816 21.8423 6.45931 21.9276C7.79296 22.0025 9.116 22.0011 10.4452 21.9996C10.6299 21.9994 10.8148 21.9992 10.9998 21.9992C11.1852 21.9992 11.3704 21.9994 11.5554 21.9996C12.8864 22.0011 14.2091 22.0025 15.5403 21.9276C17.3014 21.8423 18.8645 21.4406 20.1523 20.1527C21.4429 18.8621 21.8419 17.3018 21.9272 15.5406C22.0033 14.2313 22.0013 12.9302 21.9994 11.6213C21.9991 11.4144 21.9988 11.2073 21.9988 11ZM19.5772 17.4889C19.3763 17.9897 19.1341 18.364 18.7461 18.7492C18.3581 19.1372 17.9866 19.3794 17.4858 19.5803C16.241 20.0749 13.5246 20.0485 11.768 20.0314C11.4821 20.0286 11.2216 20.0261 10.997 20.0261C10.7718 20.0261 10.5104 20.0286 10.2234 20.0314C8.46614 20.0486 5.74976 20.0751 4.50553 19.583C4.0047 19.3822 3.63045 19.14 3.2452 18.752C2.8572 18.364 2.61504 17.9925 2.41415 17.4916C1.92215 16.245 1.94863 13.5304 1.96576 11.7736C1.96856 11.4867 1.97111 11.2253 1.97111 11C1.97111 10.7748 1.96856 10.5133 1.96576 10.2263C1.94863 8.46906 1.92214 5.75262 2.41415 4.50836C2.61504 4.00753 2.8572 3.63327 3.2452 3.24801C3.63321 2.86275 4.0047 2.61784 4.50553 2.41695C5.74976 1.92493 8.46615 1.95142 10.2234 1.96855C10.5104 1.97135 10.7718 1.9739 10.997 1.9739C11.2223 1.9739 11.4837 1.97135 11.7707 1.96855C13.5279 1.95142 16.2443 1.92493 17.4886 2.41695C17.9894 2.61784 18.3636 2.86 18.7489 3.24801C19.1369 3.63602 19.3791 4.00753 19.5799 4.50836C20.072 5.75262 20.0455 8.46905 20.0283 10.2263C20.0255 10.5133 20.023 10.7748 20.023 11C20.023 11.2246 20.0255 11.485 20.0283 11.7709C20.0454 13.5276 20.0718 16.244 19.5772 17.4889Z" fill="#8E86AC"/>
<path d="M10.997 14.6682C8.97722 14.6682 7.32888 13.0199 7.32888 11C7.32888 8.98013 8.97722 7.33177 10.997 7.33177C13.0169 7.33177 14.6652 8.98013 14.6652 11C14.6652 13.0199 13.0169 14.6682 10.997 14.6682Z" fill="#8E86AC"/>
</svg>
