<svg width="31" height="18" viewBox="0 0 31 18" fill="none" xmlns="http://www.w3.org/2000/svg">
<path fill-rule="evenodd" clip-rule="evenodd" d="M15.2138 17.8868H17.0933C17.0933 17.8868 17.6572 17.7917 17.9391 17.5063C18.2211 17.2208 18.2211 16.65 18.2211 16.65C18.2211 16.65 18.2211 14.1763 19.3488 13.7957C20.4765 13.4151 21.9801 16.2694 23.4838 17.316C24.6115 18.1723 25.4573 17.982 25.4573 17.982L29.5923 17.8868C29.5923 17.8868 31.7537 17.7917 30.72 15.984C30.626 15.8888 30.1561 14.7471 27.6188 12.3686C24.9874 9.89485 25.3633 10.3706 28.4646 6.08914C30.3441 3.52028 31.0959 1.998 30.908 1.23686C30.72 0.570856 29.3103 0.761142 29.3103 0.761142H24.6115C24.6115 0.761142 24.2356 0.665999 24.0476 0.856285C23.7657 1.04657 23.6717 1.332 23.6717 1.332C23.6717 1.332 22.9199 3.33 21.9801 5.04257C19.9127 8.56285 19.0669 8.75314 18.7849 8.56285C18.0331 8.08714 18.2211 6.46971 18.2211 5.42314C18.2211 1.998 18.7849 0.570856 17.1873 0.190284C16.7174 0.0951417 16.3415 0 15.0259 0C13.3343 0 11.9246 -3.57628e-07 11.1728 0.380571C10.6089 0.665999 10.233 1.23686 10.515 1.23686C10.7969 1.23686 11.5487 1.42714 11.9246 1.90286C12.3005 2.75914 12.3005 4.18628 12.3005 4.18628C12.3005 4.18628 12.5825 8.27742 11.6427 8.75313C10.9849 9.13371 10.1391 8.37256 8.25952 5.13771C7.31976 3.52028 6.56794 1.61743 6.56794 1.61743C6.56794 1.61743 6.47396 1.23686 6.19203 1.04657C5.9101 0.856285 5.44022 0.761142 5.44022 0.761142H1.0233C1.0233 0.761142 0.365466 0.761143 0.083535 1.04657C-0.104419 1.332 0.083535 1.80771 0.083535 1.80771C0.083535 1.80771 3.56068 9.98999 7.50771 14.1763C11.1728 18.1723 15.2138 17.8868 15.2138 17.8868Z" fill="#8E86AC"/>
</svg>
